<svg xmlns="http://www.w3.org/2000/svg" viewBox="0 0 56.69 56.69">
<path fill="#777" d="m34.67,32.34c-2.09,0-4.18,0-6.26,0s-4.18,0-6.26,0c-.26,0-.52.01-.77.07-1.2.31-1.85,1.37-1.79,2.43.08,1.33,1.1,2.28,2.47,2.29,4.23.02,8.46.03,12.7,0,1.4,0,2.48-1.13,2.46-2.42-.02-1.36-1.1-2.37-2.54-2.37Z"/>
<path fill="#777" d="m22.13,24.29c1.25,0,2.51,0,3.76,0,1,0,1.99,0,2.99,0,.51,0,1.05.04,1.54-.07,1.23-.27,1.94-1.36,1.8-2.66-.11-1.11-1.13-2.04-2.38-2.06-2.62-.03-5.24-.06-7.86,0-1.64.04-2.41,1.24-2.41,2.44,0,1.37,1.1,2.33,2.55,2.34Z"/>
<path fill="#777" d="m28.35,0C12.69,0,0,12.69,0,28.35s12.69,28.35,28.35,28.35,28.35-12.69,28.35-28.35S44,0,28.35,0Zm17.69,37.21c-.42,4.52-4.18,8.28-8.72,8.76-1.59.17-3.21.11-4.81.13-1.37.02-2.73,0-4.1,0-2.51,0-5.03,0-7.54,0-5.25-.02-9.48-3.77-10.15-8.98-.06-.44-.1-.88-.1-1.32,0-5.01-.01-10.01,0-15.02.01-4.84,3.11-8.79,7.82-9.94.76-.19,1.56-.28,2.35-.29,2.94-.03,5.88.03,8.81-.03,2.66-.06,4.85.99,6.76,2.71,2,1.79,3.05,4.03,2.96,6.76-.04,1.25,0,2.51-.02,3.77,0,.4.1.54.52.56.7.03,1.4.1,2.08.24,2.31.46,3.64,1.92,4.03,4.21.15.85.23,1.72.23,2.58,0,1.95.06,3.92-.12,5.86Z"/>
</svg>