<svg xmlns="http://www.w3.org/2000/svg" viewBox="0 0 56.69 56.69">
<path fill="#777" d="m28.35,0C12.69,0,0,12.69,0,28.35s12.69,28.35,28.35,28.35,28.35-12.69,28.35-28.35S44,0,28.35,0Zm2.6,12c4.03-3.41,10.34.17,9.45,5.38-.47,2.73-2.94,4.82-5.72,4.81-5.26-.02-7.74-6.79-3.73-10.2Zm-7.47-.04c2.49,0,4.44,1.95,4.43,4.4,0,2.5-1.95,4.43-4.48,4.42-2.41-.01-4.37-1.99-4.36-4.42,0-2.45,1.96-4.41,4.4-4.4Zm-8.44,1.08c1.86,0,3.34,1.5,3.33,3.37-.01,1.9-1.47,3.36-3.34,3.35-1.9,0-3.39-1.5-3.38-3.39,0-1.83,1.53-3.34,3.39-3.33Zm27.47,33h-15.54v-7.07h-9.75v-7.08h-5.85c0-1.83,0-3.66,0-5.49,0-1.51-.19-3.25,1.17-4.26,1.04-.77,2.52-1,3.75-.6,1.39.45,2.22,1.56,2.7,2.89,3.2-3.49,8.67-2.29,10.15,2.18,2.1-1.42,4.11-2.45,6.72-2.04,2.1.33,4.03,1.51,5.24,3.26,1.67,2.41,1.37,5.27,1.38,8.06.02,3.36.24,6.8.03,10.16Z"/>
</svg>