<svg xmlns="http://www.w3.org/2000/svg" viewBox="0 0 56.69 56.69">
<path fill="#777" d="m28.35,0C12.69,0,0,12.69,0,28.35s12.69,28.35,28.35,28.35,28.35-12.69,28.35-28.35S44,0,28.35,0Zm19.95,15.79c-.96.98-2.04,1.83-3.06,2.75-.12.11-.21.34-.2.5.15,3.8-.27,7.53-1.57,11.11-2.66,7.34-7.33,12.87-14.82,15.53-6.73,2.39-13.17,1.44-19.15-2.48-.12-.08-.23-.17-.47-.37,4.4-.19,8.09-1.86,11.54-4.37-2.84-.14-5.03-1.36-6.61-3.62-.6-.86-1.02-1.84-1.44-2.84,1.67.58,3.26.59,4.88-.02-2.2-.52-4.05-1.6-5.49-3.3-1.43-1.7-2.2-3.68-2.34-6.03,1.47,1.11,3.1,1.17,4.72,1.23-2.8-1.77-4.59-4.16-4.71-7.58-.06-1.76.4-3.4,1.21-4.82,4.43,5.94,10.29,9.03,17.78,9.17-.12-.76-.26-1.37-.31-2-.37-4.84,3.53-9.13,8.29-9.13,2.38,0,4.4.87,6.06,2.58.15.16.53.27.73.19,1.45-.58,2.88-1.22,4.31-1.84.1-.04.2-.09.37-.16.09,1.16-.46,2.07-1.09,2.86-.62.78-1.46,1.39-2.14,2.01,1.53.17,2.99-.63,4.62-1.2-.36.61-.63,1.32-1.11,1.82Z"/>
</svg>