<svg xmlns="http://www.w3.org/2000/svg" viewBox="0 0 56.69 56.69">
<path fill="#777" d="m28.35,0C12.69,0,0,12.69,0,28.35s12.69,28.35,28.35,28.35,28.35-12.69,28.35-28.35S44,0,28.35,0Zm15.36,33.27c-.08.02-.16.06-.25.08-1.16.25-2.33.41-3.52.41-.27,0-.41.08-.53.33-.83,1.8-1.85,3.49-2.97,5.12-1.08,1.57-2.26,3.06-3.54,4.46-.79.87-1.62,1.7-2.53,2.45-.41.34-.85.65-1.35.85-.77.31-1.53.28-2.28-.05-.66-.29-1.23-.73-1.78-1.2-1.24-1.05-2.29-2.27-3.25-3.58-1.01-1.37-1.88-2.83-2.66-4.34-1.71-3.3-2.93-6.78-3.9-10.36-.63-2.35-1.14-4.74-1.54-7.14-.2-1.19-.36-2.38-.53-3.57-.01-.1-.01-.2-.02-.33.12,0,.21-.02.3-.02,1.78,0,3.55,0,5.33,0,.31,0,.31,0,.35.31.39,3.29.94,6.54,1.79,9.74.67,2.52,1.52,4.97,2.62,7.33,1.19,2.54,2.65,4.91,4.38,7.11.11.14.22.28.36.45,2.5-2.62,4.43-5.57,6.02-8.8-.09-.06-.16-.11-.23-.15-1.88-1.06-3.29-2.57-4.33-4.43-.99-1.77-1.53-3.67-1.75-5.68-.11-1.01-.14-2.02-.05-3.03.17-1.84.67-3.57,1.75-5.09,1.25-1.76,2.95-2.79,5.08-3.1,1.26-.18,2.5-.12,3.72.2,2.18.57,3.69,1.93,4.55,4.01.44,1.08.66,2.21.74,3.37.14,2.05-.11,4.06-.7,6.03-.11.37-.26.74-.39,1.11-.05.14-.13.22-.28.25-1.13.19-2.23.15-3.28-.34-.58-.27-1.07-.66-1.47-1.17-.12-.15-.15-.29-.09-.47.28-.95.47-1.91.55-2.89.08-1.03.08-2.06-.26-3.06-.13-.38-.3-.74-.58-1.04-.77-.84-2.11-.82-2.87.05-.48.55-.73,1.21-.84,1.92-.33,2.22-.09,4.37.97,6.38,1.15,2.17,2.97,3.41,5.38,3.81,1.14.19,2.27.11,3.39-.1.15-.03.3-.05.44-.07.07.23.09,3.88.03,4.27Z"/>
</svg>